<?xml version="1.0" encoding="iso-8859-1"?>
<!-- Generator: Adobe Illustrator 18.1.1, SVG Export Plug-In . SVG Version: 6.00 Build 0)  -->
<svg version="1.1" id="Capa_1" xmlns="http://www.w3.org/2000/svg" xmlns:xlink="http://www.w3.org/1999/xlink" x="0px" y="0px"
	 viewBox="0 0 492 492" style="enable-background:new 0 0 492 492;" xml:space="preserve">
<g>
	<g>
		<path style="fill:#ffffff;" d="M105,209.5v2c0,9.333,3.667,14,11,14h28v164h41v-143h41v143h40v-143h41v143h41v-164h28
			c3.333,0,6.333-1.5,9-4.5s4-6.167,4-9.5c0-4.667-1.667-8.333-5-11v-1h1l-129-67v-19c6.667,3.333,17.333,3.833,32,1.5
			s28-1.5,40,2.5v-43c-10.667-4-24-4.667-40-2s-26.667,2-32-2v-2c0-4.667-3.333-7-10-7s-10,2.333-10,7v64l-129,67h1h2h3
			C107,200.833,104.333,204.167,105,209.5z"/>
		<polygon style="fill:#ffffff;" points="133,399.5 103,430.5 389,430.5 359,399.5 		"/>
		<path style="fill:#ffffff;" d="M359,236.5v153h9l4,6l27,25l10,10h83v-194H359z M420,358.5h-31v-30h31V358.5z M420,297.5h-31v-31
			h31V297.5z M461,358.5h-20v-30h20V358.5z M461,297.5h-20v-31h20V297.5z"/>
		<path style="fill:#ffffff;" d="M124,389.5h9v-153H0v194h83l10-9l27-26L124,389.5z M51,358.5H31v-30h20V358.5z M51,297.5H31v-31h20
			V297.5z M103,358.5H72v-30h31V358.5z M103,297.5H72v-31h31V297.5z"/>
	</g>
</g>
<g>
</g>
<g>
</g>
<g>
</g>
<g>
</g>
<g>
</g>
<g>
</g>
<g>
</g>
<g>
</g>
<g>
</g>
<g>
</g>
<g>
</g>
<g>
</g>
<g>
</g>
<g>
</g>
<g>
</g>
</svg>
